<?xml version="1.0" encoding="utf-8"?>
<svg version="1.1" id="artwork" xmlns="http://www.w3.org/2000/svg" width="120" height="40" viewBox="0 0 120 40" >
<style type="text/css">
	.st0{fill:#A6A6A6;}
	.st1{fill:#FFFFFF;}
	.st2{fill:url(#SVGID_1_);}
	.st3{fill:url(#SVGID_2_);}
	.st4{fill:url(#SVGID_3_);}
	.st5{fill:url(#SVGID_4_);}
	.st6{opacity:0.2;enable-background:new    ;}
	.st7{opacity:0.12;enable-background:new    ;}
	.st8{opacity:0.25;fill:#FFFFFF;enable-background:new    ;}
	.st9{fill:#FFFFFF;stroke:#FFFFFF;stroke-width:0.2;stroke-miterlimit:10;}
</style>
<g>
	<path d="M115.6,37.8H4.4c-2.5,0-4.4-2-4.4-4.4V6.7c0-2.5,2-4.4,4.4-4.4h111.1c2.5,0,4.4,2,4.4,4.4v26.7
		C120,35.7,118,37.8,115.6,37.8z"/>
</g>
<g>
	<g>
		<path class="st0" d="M115.6,2.9c2,0,3.7,1.7,3.7,3.7v26.7c0,2-1.7,3.7-3.7,3.7H4.4c-2,0-3.7-1.7-3.7-3.7V6.7c0-2,1.7-3.7,3.7-3.7
			H115.6 M115.6,2.2H4.4C2,2.2,0,4.2,0,6.7v26.7c0,2.5,2,4.4,4.4,4.4h111.1c2.5,0,4.4-2,4.4-4.4V6.7C120,4.3,118,2.2,115.6,2.2
			L115.6,2.2z"/>
	</g>
</g>
<path class="st1" d="M60.5,21.6c-2.1,0-3.8,1.6-3.8,3.8c0,2.1,1.7,3.8,3.8,3.8c2.1,0,3.8-1.6,3.8-3.8C64.4,23.1,62.7,21.6,60.5,21.6
	z M60.5,27.6c-1.2,0-2.1-1-2.1-2.3c0-1.3,1-2.3,2.1-2.3c1.2,0,2.1,0.9,2.1,2.3C62.7,26.7,61.7,27.6,60.5,27.6z M52.3,21.6
	c-2.1,0-3.8,1.6-3.8,3.8c0,2.1,1.7,3.8,3.8,3.8c2.1,0,3.8-1.6,3.8-3.8C56.1,23.1,54.4,21.6,52.3,21.6z M52.3,27.6
	c-1.2,0-2.1-1-2.1-2.3c0-1.3,1-2.3,2.1-2.3c1.2,0,2.1,0.9,2.1,2.3C54.4,26.7,53.4,27.6,52.3,27.6z M42.4,22.8v1.6h3.8
	c-0.1,0.9-0.4,1.6-0.9,2c-0.5,0.5-1.4,1.2-2.9,1.2c-2.4,0-4.2-1.9-4.2-4.3s1.9-4.3,4.2-4.3c1.2,0,2.2,0.5,2.9,1.2l1.2-1.2
	c-1-0.9-2.2-1.6-4-1.6c-3.2,0-6,2.7-6,5.9s2.8,5.9,6,5.9c1.8,0,3-0.5,4.1-1.7c1.1-1.1,1.4-2.6,1.4-3.7c0-0.4,0-0.7-0.1-1
	C47.9,22.8,42.4,22.8,42.4,22.8z M82.8,24c-0.4-0.9-1.2-2.4-3.2-2.4S76,23.1,76,25.4c0,2.1,1.6,3.8,3.7,3.8c1.7,0,2.8-1.1,3.1-1.7
	l-1.2-0.9c-0.4,0.6-1,1.1-1.9,1.1c-0.9,0-1.4-0.4-1.9-1.2l5.1-2.1L82.8,24z M77.6,25.2c0-1.4,1.2-2.2,2-2.2c0.6,0,1.2,0.4,1.4,0.8
	L77.6,25.2z M73.4,28.9h1.7V17.8h-1.7V28.9z M70.8,22.4L70.8,22.4c-0.4-0.4-1.2-0.9-2-0.9c-1.9,0-3.6,1.7-3.6,3.8
	c0,2.1,1.7,3.7,3.6,3.7c0.9,0,1.6-0.4,2-0.9h0.1v0.5c0,1.4-0.8,2.2-2,2.2c-1,0-1.7-0.7-1.9-1.3l-1.4,0.6c0.4,1,1.5,2.2,3.4,2.2
	c2,0,3.6-1.2,3.6-3.9v-6.8h-1.6C70.8,21.8,70.8,22.4,70.8,22.4z M68.8,27.6c-1.2,0-2.1-1-2.1-2.3c0-1.3,1-2.3,2.1-2.3
	c1.2,0,2,1,2,2.3C70.8,26.7,70,27.6,68.8,27.6z M90.5,17.8h-4v11.1h1.7v-4.2h2.3c1.9,0,3.6-1.3,3.6-3.5S92.4,17.8,90.5,17.8z
	 M90.6,23.1h-2.4v-3.8h2.4c1.2,0,2,1.1,2,1.9C92.4,22.1,91.7,23.1,90.6,23.1z M100.8,21.5c-1.2,0-2.5,0.5-2.9,1.7l1.5,0.6
	c0.4-0.6,0.9-0.8,1.5-0.8c0.9,0,1.7,0.5,1.8,1.4v0.1c-0.3-0.2-1-0.4-1.7-0.4c-1.6,0-3.2,0.9-3.2,2.5c0,1.5,1.3,2.5,2.8,2.5
	c1.2,0,1.7-0.5,2.1-1.1h0.1v0.9h1.6v-4.3C104.2,22.7,102.7,21.5,100.8,21.5z M100.6,27.6c-0.5,0-1.3-0.3-1.3-1c0-0.9,1-1.2,1.8-1.2
	c0.7,0,1.1,0.2,1.5,0.4C102.4,26.9,101.5,27.6,100.6,27.6z M110,21.8l-1.9,4.8H108l-2-4.8h-1.8l2.9,6.8l-1.7,3.7h1.7l4.5-10.5
	L110,21.8L110,21.8z M95,28.9h1.7V17.8H95V28.9z"/>
<g>
	
		<linearGradient id="SVGID_1_" gradientUnits="userSpaceOnUse" x1="19.3477" y1="-845.9343" x2="4.43" y2="-860.852" gradientTransform="matrix(1 0 0 -1 0 -836)">
		<stop  offset="0" style="stop-color:#00A0FF"/>
		<stop  offset="6.574450e-03" style="stop-color:#00A1FF"/>
		<stop  offset="0.2601" style="stop-color:#00BEFF"/>
		<stop  offset="0.5122" style="stop-color:#00D2FF"/>
		<stop  offset="0.7604" style="stop-color:#00DFFF"/>
		<stop  offset="1" style="stop-color:#00E3FF"/>
	</linearGradient>
	<path class="st2" d="M9.2,8.9C9,9.2,8.8,9.6,8.8,10.1v19.6c0,0.5,0.2,1,0.4,1.2l0.1,0.1l11-11V20v-0.1L9.2,8.9L9.2,8.9z"/>
	
		<linearGradient id="SVGID_2_" gradientUnits="userSpaceOnUse" x1="30.075" y1="-856.048" x2="8.5667" y2="-856.048" gradientTransform="matrix(1 0 0 -1 0 -836)">
		<stop  offset="0" style="stop-color:#FFE000"/>
		<stop  offset="0.4087" style="stop-color:#FFBD00"/>
		<stop  offset="0.7754" style="stop-color:#FFA500"/>
		<stop  offset="1" style="stop-color:#FF9C00"/>
	</linearGradient>
	<path class="st3" d="M24,23.8l-3.6-3.6V20v-0.1l3.6-3.6l0.1,0.1l4.4,2.5c1.2,0.7,1.2,1.9,0,2.6L24,23.8L24,23.8z"/>
	
		<linearGradient id="SVGID_3_" gradientUnits="userSpaceOnUse" x1="22.0557" y1="-858.0283" x2="1.8261" y2="-878.2579" gradientTransform="matrix(1 0 0 -1 0 -836)">
		<stop  offset="0" style="stop-color:#FF3A44"/>
		<stop  offset="1" style="stop-color:#C31162"/>
	</linearGradient>
	<path class="st4" d="M24.1,23.7L20.4,20L9.2,31.1c0.4,0.4,1.1,0.4,1.9,0.1L24.1,23.7"/>
	
		<linearGradient id="SVGID_4_" gradientUnits="userSpaceOnUse" x1="6.4536" y1="-838.4117" x2="15.487" y2="-847.4451" gradientTransform="matrix(1 0 0 -1 0 -836)">
		<stop  offset="0" style="stop-color:#32A071"/>
		<stop  offset="6.850000e-02" style="stop-color:#2DA771"/>
		<stop  offset="0.4762" style="stop-color:#15CF74"/>
		<stop  offset="0.8009" style="stop-color:#06E775"/>
		<stop  offset="1" style="stop-color:#00F076"/>
	</linearGradient>
	<path class="st5" d="M24.1,16.3l-13-7.4C10.3,8.4,9.7,8.5,9.2,9l11.1,11L24.1,16.3z"/>
	<g>
		<path class="st6" d="M24,23.6l-12.9,7.3c-0.7,0.4-1.3,0.4-1.8,0l0,0L9.3,31l0,0l0.1,0.1l0,0c0.4,0.4,1.1,0.4,1.8,0L24,23.6
			L24,23.6z"/>
		<path class="st7" d="M9.2,30.9c-0.3-0.3-0.4-0.7-0.4-1.2v0.1C8.9,30.3,9.1,30.7,9.2,30.9L9.2,30.9L9.2,30.9z"/>
	</g>
	<path class="st7" d="M28.4,21.2L24,23.6l0.1,0.1L28.4,21.2c0.6-0.3,0.9-0.7,0.9-1.2l0,0C29.3,20.4,29,20.8,28.4,21.2z"/>
	<path class="st8" d="M11.1,9l17.3,9.9c0.5,0.4,0.9,0.7,0.9,1.2l0,0c0-0.4-0.3-0.9-0.9-1.2L11.1,9c-1.2-0.8-2.2-0.2-2.2,1.2v0.1
		C8.9,8.9,9.9,8.3,11.1,9z"/>
</g>
<path class="st9" d="M62.6,15.1c-0.5,0-1-0.2-1.3-0.4c-0.4-0.4-0.4-0.8-0.4-1.3c0-0.2,0-0.4,0-0.5c0-0.2,0.1-0.4,0.2-0.7l0.4,0.1
	c-0.1,0.3-0.1,0.5-0.1,0.7c0,0.4,0.1,0.9,0.4,1.2c0.3,0.3,0.5,0.4,1,0.4c0.4,0,1-0.1,1.4-0.4c0.4-0.3,0.8-0.5,1-0.9
	c-0.4-0.9-0.6-1.5-0.6-1.9c0-0.2,0.1-0.4,0.2-0.4c0.1-0.2,0.3-0.3,0.5-0.4c0,0.3,0.1,0.6,0.3,1.2l0,0c0.2,0.1,0.4,0.2,0.7,0.2
	c0.1,0,0.1,0,0.1,0.1v0.6c0,0.1,0,0.1-0.1,0.1c-0.2,0-0.4,0-0.6-0.1v0.3c0,0.4-0.1,0.8-0.4,1.2c-0.3,0.4-0.6,0.6-1.1,0.9
	C63.6,15,63.1,15.1,62.6,15.1z M63.4,9.8c-0.2,0.2-0.4,0.4-0.6,0.7c-0.3-0.3-0.5-0.4-0.7-0.6c0.4-0.4,0.5-0.5,0.7-0.7
	C62.9,9.3,63.1,9.6,63.4,9.8z"/>
<path class="st9" d="M66,12.5C66,12.5,66,12.5,66,12.5L66,11.9c0-0.1,0-0.1,0.1-0.1c0.3,0,0.4-0.1,0.6-0.2c0.2-0.1,0.4-0.3,0.4-0.5
	l0.2-0.4c0.3-0.5,0.5-0.9,0.7-1.2c0.3-0.2,0.5-0.4,0.8-0.4c0.2,0,0.4,0.1,0.5,0.4c0.2,0.3,0.4,0.5,0.4,0.9c0.1,0.4,0.2,0.7,0.2,1.1
	c0,0.2,0,0.4-0.1,0.5c-0.1,0.2-0.2,0.4-0.4,0.4c-0.4,0-0.8-0.1-1.2-0.2c-0.4-0.1-0.8-0.3-1.1-0.4c-0.2,0.2-0.4,0.4-0.5,0.4
	C66.5,12.5,66.3,12.5,66,12.5z M69.3,11.8c0-0.4-0.1-0.8-0.3-1.2c-0.2-0.4-0.3-0.5-0.4-0.5c-0.1,0-0.3,0-0.4,0.1
	c-0.1,0.1-0.2,0.2-0.4,0.4c-0.1,0.2-0.3,0.4-0.4,0.8C68,11.6,68.6,11.7,69.3,11.8z"/>
<path class="st9" d="M75.4,12.2c-0.4,0-0.6-0.1-0.7-0.1c-0.2,0-0.3-0.1-0.4-0.1c-0.2-0.1-0.3-0.1-0.4-0.2s-0.3-0.2-0.4-0.3
	c-0.1-0.1-0.1-0.2-0.1-0.2c0-0.1,0-0.3,0.1-0.4s0.2-0.4,0.2-0.4c0.1-0.2,0.4-0.4,0.6-0.6c0.4-0.3,0.7-0.4,1.1-0.6V9
	c0.3-0.2,0.4-0.4,0.7-0.5l0.1,3.2c0.3,0.2,0.6,0.3,1,0.3c0.1,0,0.1,0,0.1,0.1v0.6c0,0.1,0,0.1-0.1,0.1c-0.4,0-0.7-0.1-1-0.2
	c-0.3-0.2-0.4-0.4-0.4-0.6v-0.2L75.4,12.2z M73.8,10.8c0.3,0.3,0.5,0.4,0.9,0.4s0.7,0.1,1.1,0.1l-0.3-1.6l0,0
	C74.7,10,74.1,10.4,73.8,10.8z"/>
<path class="st9" d="M79.8,10.3c0.1,0,0.2,0,0.3,0.1c-0.1,0.3-0.2,0.5-0.3,0.7c-0.1,0.2-0.2,0.3-0.2,0.4c0.2,0.2,0.4,0.3,0.6,0.3
	c0.2,0.1,0.4,0.1,0.6,0.1c0.1,0,0.1,0,0.1,0.1v0.6c0,0.1,0,0.1-0.1,0.1c-0.6,0-1.2-0.2-1.5-0.5l-0.3,0.1c-0.1,0.1-0.3,0.2-0.7,0.3
	s-0.8,0.1-1.2,0.1c-0.1,0-0.1,0-0.1-0.1v-0.6c0-0.1,0-0.1,0.1-0.1c0.4,0,0.7,0,1.1-0.1c0.3,0,0.4-0.1,0.6-0.2
	c0.1-0.1,0.3-0.4,0.5-0.8l0.2-0.4C79.6,10.4,79.6,10.3,79.8,10.3z M78.9,13.8c-0.1,0.2-0.3,0.4-0.6,0.7c-0.3-0.3-0.5-0.4-0.6-0.6
	c0.2-0.2,0.4-0.4,0.6-0.6C78.4,13.2,78.6,13.4,78.9,13.8z M80.4,13.7c-0.1,0.2-0.4,0.4-0.6,0.6c-0.3-0.3-0.5-0.4-0.6-0.6
	c0.2-0.2,0.4-0.4,0.6-0.6C79.8,13.2,80.1,13.3,80.4,13.7z"/>
<path class="st9" d="M81,12.5C80.9,12.5,80.9,12.5,81,12.5l-0.1-0.6c0-0.1,0-0.1,0.1-0.1c0.4,0,0.7-0.1,1.1-0.3
	c-0.1-0.7-0.2-2-0.3-3.7l-0.1-1.3c0.2-0.2,0.4-0.4,0.6-0.5c0,0.9,0.1,2.3,0.1,4.2v1.3c0.3,0.2,0.6,0.3,1,0.3c0.1,0,0.1,0,0.1,0.1
	v0.6c0,0.1,0,0.1-0.1,0.1c-0.4,0-0.9-0.1-1.2-0.4c-0.3,0.2-0.4,0.3-0.6,0.3C81.4,12.5,81.2,12.5,81,12.5z"/>
<path class="st9" d="M83.5,12.5C83.4,12.5,83.4,12.5,83.5,12.5l-0.1-0.6c0-0.1,0-0.1,0.1-0.1c0.4,0,0.8,0,1.2,0
	c-0.2-0.1-0.3-0.3-0.4-0.4c-0.1-0.2-0.2-0.4-0.2-0.5c0-0.3,0.1-0.5,0.3-0.9c0.2-0.3,0.4-0.5,0.6-0.7C85.2,9.1,85.4,9,85.7,9
	c0.3,0,0.4,0.1,0.6,0.2c0.2,0.1,0.4,0.3,0.7,0.5L86.8,10c-0.3-0.1-0.4-0.2-0.5-0.2c-0.1,0-0.3,0-0.4,0c-0.4,0-0.8,0.1-1.2,0.4
	c0,0.3,0.1,0.5,0.2,0.8c0.2,0.3,0.4,0.4,0.6,0.5c0.3,0.2,0.5,0.2,0.9,0.3c0.3-0.1,0.4-0.1,0.7-0.2c0.3-0.1,0.5-0.2,1-0.4
	c0.1,0.1,0.2,0.2,0.2,0.4v0.1c0,0.2-0.2,0.4-0.4,0.4c-0.8,0.2-1.3,0.4-1.8,0.4c-0.4,0.1-0.8,0.1-1.2,0.2
	C84.4,12.5,83.9,12.5,83.5,12.5z"/>
<path class="st9" d="M95.4,13.1l-0.3-1.6c-0.3-1.7-0.4-2.8-0.5-3.5c-0.1-0.6-0.1-1.1-0.1-1.2c0-0.2,0.1-0.4,0.2-0.5
	C94.8,6.1,94.9,6,95.1,6V6c0,0,0.1,0.4,0.4,1.1l-0.3,0.2v0.2l0.4,2.9c0.1,0.4,0.1,0.8,0.1,1.2l0,0c0.2,0.1,0.4,0.2,0.7,0.2
	c0.1,0,0.1,0,0.1,0.1v0.6c0,0.1,0,0.1-0.1,0.1c-0.3,0-0.4-0.1-0.7-0.2v0.4c0,0.4-0.1,0.8-0.4,1.2c-0.3,0.4-0.6,0.6-1.1,0.9
	c-0.4,0.3-0.9,0.4-1.3,0.4c-0.5,0-1-0.2-1.3-0.4c-0.4-0.4-0.4-0.8-0.4-1.3c0-0.2,0-0.4,0-0.5c0-0.2,0.1-0.4,0.2-0.7l0.4,0.1
	c-0.1,0.3-0.1,0.5-0.1,0.7c0,0.4,0.1,0.9,0.4,1.2c0.3,0.3,0.5,0.4,1,0.4c0.3,0,0.6-0.1,1-0.2c0.4-0.1,0.6-0.3,0.9-0.4
	C95.1,13.5,95.3,13.3,95.4,13.1z"/>
<path class="st9" d="M104.2,12.5c-0.3,0-0.5-0.1-0.8-0.2c-0.3-0.1-0.5-0.3-0.7-0.4c-0.3,0.2-0.6,0.4-1.1,0.4s-0.8,0.2-1.2,0.2
	s-1-0.1-1.4-0.2c-0.5-0.1-0.9-0.3-1.2-0.4l-0.2,0.2c-0.2,0.3-0.5,0.4-1.1,0.4c-0.1,0-0.1,0-0.1-0.1v-0.6c0-0.1,0-0.1,0.1-0.1
	c0.3,0,0.5-0.1,0.7-0.2c0.2-0.1,0.4-0.4,0.5-0.6l0.2-0.3c0.1-0.1,0.2-0.2,0.3-0.2s0.2,0,0.3,0.1c-0.2,0.4-0.3,0.5-0.3,0.7
	c0.2,0.1,0.4,0.2,0.4,0.2C99.9,9.8,101,9,101.8,9c0.2,0,0.4,0.1,0.7,0.3c0.3,0.2,0.5,0.4,0.7,0.5c0.2,0.3,0.4,0.4,0.4,0.6
	c0,0.4-0.1,0.7-0.4,1.1c0.3,0.2,0.6,0.3,1.1,0.3c0.1,0,0.1,0,0.1,0.1L104.2,12.5C104.3,12.5,104.3,12.5,104.2,12.5z M100.4,11.8
	c0.9,0,1.7-0.3,2.6-0.8c-0.2-0.4-0.4-0.6-0.7-0.8c-0.3-0.2-0.5-0.3-0.8-0.3s-0.7,0.2-1.1,0.4c-0.4,0.3-0.9,0.7-1.4,1.3
	C99.6,11.7,100,11.8,100.4,11.8z"/>
<path class="st9" d="M104.2,12.5L104.2,12.5l-0.1-0.6c0-0.1,0-0.1,0.1-0.1c1,0,1.7-0.1,2.2-0.3l0.5-0.2c0.4-0.2,0.7-0.3,1-0.3
	c-0.3-0.1-0.5-0.3-0.7-0.4c-0.3-0.2-0.4-0.4-0.6-0.4s-0.4-0.1-0.5-0.1c-0.4,0-0.6,0.1-0.8,0.3l-0.3,0.2c-0.1-0.1-0.2-0.3-0.2-0.4
	c0-0.3,0.1-0.4,0.4-0.6c0.2-0.2,0.5-0.3,0.9-0.3c0.2,0,0.4,0.1,0.6,0.2c0.2,0.1,0.4,0.3,0.7,0.4c0.4,0.3,0.6,0.4,0.9,0.5
	c0.3,0.1,0.4,0.2,0.7,0.3s0.6,0.1,1.1,0.1l-0.4,0.7c-0.2,0-0.4,0-0.5-0.1l0,0H109c-0.3,0-0.4,0-0.6,0.1s-0.5,0.2-1,0.4
	s-0.9,0.4-1.3,0.5C105.6,12.5,105.1,12.5,104.2,12.5z"/>
<path class="st9" d="M111.4,9.3V10c0,0.6,0,1.5-0.1,2.6l-0.4,0.1c0-2.3-0.1-4.2-0.3-5.7V6.8c0-0.2,0.1-0.4,0.2-0.5
	c0.1-0.1,0.3-0.2,0.5-0.3v0.1c0,0,0.1,0.4,0.4,1.1l-0.3,0.3v0.1C111.3,8.1,111.4,8.7,111.4,9.3z"/>
</svg>
