<?xml version="1.0" encoding="utf-8"?>
<!-- Generator: Adobe Illustrator 25.0.1, SVG Export Plug-In . SVG Version: 6.00 Build 0)  -->
<svg version="1.1" id="Layer_1" xmlns="http://www.w3.org/2000/svg" xmlns:xlink="http://www.w3.org/1999/xlink" x="0px" y="0px"
	 viewBox="0 0 269 143" style="enable-background:new 0 0 269 143;" xml:space="preserve">
<style type="text/css">
	.st0{fill:#E7680B;}
	.st1{fill:#FFFFFF;}
</style>
<path class="st0" d="M159.1,80.2c0.9,0,1.8-0.1,2.6-0.4c0.8-0.3,1.6-0.8,2.3-1.4c0.6-0.6,1.1-1.4,1.5-2.2c0.3-0.8,0.4-1.7,0.3-2.6
	c0-0.9-0.1-1.8-0.4-2.6c-0.3-0.8-0.8-1.6-1.4-2.3c-0.6-0.6-1.4-1.1-2.3-1.4c-0.9-0.3-1.8-0.4-2.7-0.3c-0.9,0-1.8,0.1-2.7,0.4
	c-0.8,0.3-1.6,0.8-2.3,1.4c-0.6,0.6-1.1,1.4-1.5,2.2c-0.3,0.8-0.4,1.7-0.3,2.6c-0.1,0.9,0,1.8,0.3,2.6c0.3,0.8,0.8,1.6,1.4,2.2
	c0.6,0.6,1.4,1.1,2.3,1.4C157.2,80.2,158.2,80.3,159.1,80.2z"/>
<path class="st0" d="M173.9,80.2c0.9,0,1.8-0.1,2.7-0.4c0.8-0.3,1.6-0.8,2.3-1.4c0.6-0.6,1.1-1.4,1.5-2.2c0.3-0.8,0.4-1.7,0.3-2.6
	c0-0.9-0.1-1.8-0.4-2.6c-0.3-0.8-0.8-1.6-1.4-2.3c-0.6-0.6-1.4-1.1-2.3-1.4c-0.9-0.3-1.8-0.4-2.7-0.3c-0.9,0-1.8,0.1-2.7,0.4
	c-0.8,0.3-1.6,0.8-2.3,1.4c-0.6,0.6-1.1,1.4-1.5,2.2c-0.3,0.8-0.4,1.7-0.3,2.6c0,0.9,0.1,1.8,0.4,2.6c0.3,0.8,0.8,1.6,1.4,2.3
	c0.6,0.6,1.4,1.1,2.3,1.4C172.1,80.2,173,80.3,173.9,80.2z"/>
<path class="st0" d="M194.1,128.7c-0.9,0-1.8,0.1-2.7,0.4c-0.8,0.3-1.6,0.8-2.3,1.4c-0.6,0.6-1.1,1.4-1.5,2.2
	c-0.3,0.8-0.4,1.7-0.3,2.6c0,0.9,0.1,1.8,0.4,2.6c0.3,0.8,0.8,1.6,1.4,2.3c0.6,0.6,1.4,1.1,2.3,1.4c0.9,0.3,1.8,0.4,2.7,0.3
	c1.8,0,3.5-0.7,4.8-2c1.3-1.2,2-2.9,2-4.7s-0.7-3.5-2-4.7C197.6,129.4,195.8,128.7,194.1,128.7z"/>
<path class="st0" d="M208.9,128.7c-0.9,0-1.8,0.1-2.7,0.4c-0.8,0.3-1.6,0.8-2.3,1.4c-0.6,0.6-1.1,1.4-1.5,2.2
	c-0.3,0.8-0.4,1.7-0.3,2.6c0,0.9,0.1,1.8,0.4,2.6c0.3,0.8,0.8,1.6,1.4,2.3c0.6,0.6,1.4,1.1,2.3,1.4c0.9,0.3,1.8,0.4,2.7,0.3
	c1.8,0,3.5-0.7,4.8-2c1.3-1.2,2-2.9,2-4.7s-0.7-3.5-2-4.7C212.4,129.4,210.7,128.7,208.9,128.7z"/>
<path class="st0" d="M268.1,100.7c-2.6-4.8-6.1-9-10.3-12.4c-3.7-3-8.2-4.7-13-4.9c-2.9,0-5.7,0.6-8.3,1.8c-2.6,1.1-5,2.8-6.9,4.9
	c-0.4,0.4-0.8,0.9-1,1.4c-0.2,0.5-0.3,1.1-0.3,1.7v1.8c0,0.7,0.2,1.4,0.6,2.1c0.4,0.6,0.9,1.2,1.5,1.5c0.6,0.4,1.4,0.5,2.1,0.5
	c0.7,0,1.5-0.2,2.1-0.6c2.6-1.6,5.5-2.5,8.5-2.7c2.6,0,5.2,1,7.2,2.7c0.5,0.5,0.9,1.1,1.1,1.7c0.2,0.7,0.3,1.4,0.2,2.1
	c-0.1,0.7-0.3,1.4-0.7,1.9c-0.4,0.6-0.9,1.1-1.5,1.4c-4.7,2.4-10,3.6-15.3,3.6h-17.1c-0.5,0.1-1,0-1.5-0.1c-0.5-0.2-0.9-0.4-1.2-0.8
	c-0.3-0.3-0.6-0.8-0.8-1.2c-0.2-0.5-0.2-1-0.1-1.4V92.2c0-0.7-0.2-1.4-0.6-2.1c-0.4-0.6-0.9-1.2-1.5-1.5c-0.6-0.4-1.4-0.5-2.1-0.5
	c-0.7,0-1.5,0.2-2.1,0.6l-4.9,2.7c-0.6,0.4-1.2,0.9-1.6,1.5c-0.4,0.6-0.6,1.3-0.7,2v10.7c0.1,0.5,0,1-0.1,1.4
	c-0.2,0.5-0.4,0.9-0.8,1.2c-0.3,0.3-0.8,0.6-1.2,0.8c-0.5,0.2-1,0.2-1.5,0.1h-13.5c-0.5,0.1-1,0-1.5-0.1c-0.5-0.2-0.9-0.4-1.2-0.8
	c-0.3-0.3-0.6-0.8-0.8-1.2c-0.2-0.5-0.2-1-0.1-1.4V92.2c0-0.7-0.2-1.4-0.6-2.1c-0.4-0.6-0.9-1.2-1.5-1.5c-0.6-0.4-1.4-0.5-2.1-0.5
	c-0.7,0-1.5,0.2-2.1,0.6l-4.9,2.7c-0.6,0.4-1.2,0.9-1.6,1.5c-0.4,0.6-0.6,1.3-0.7,2v10.7c0.1,0.5,0,1-0.1,1.4
	c-0.2,0.5-0.4,0.9-0.8,1.2c-0.3,0.3-0.8,0.6-1.2,0.8c-0.5,0.2-1,0.2-1.5,0.1H116c-1.1,0-2.1,0.4-2.9,1.2c-0.8,0.8-1.2,1.8-1.2,2.8
	v4.9c0,1.1,0.4,2.1,1.2,2.8c0.8,0.8,1.8,1.2,2.9,1.2h47.6c2.5,0,4.9-0.4,7.2-1.3c1.2-0.4,2.4-0.4,3.6,0c2.3,0.9,4.7,1.4,7.2,1.3
	h16.2c2.5,0,4.9-0.4,7.2-1.3c1.2-0.4,2.4-0.4,3.6,0c2.3,0.9,4.7,1.4,7.2,1.3h18.8c6.8,0,13.5-1.3,19.7-4c5.4-2.5,10.1-6.2,13.9-10.7
	c0.5-0.8,0.8-1.7,0.9-2.7v-1.8C269,102,268.6,101.6,268.1,100.7z"/>
<path class="st0" d="M248.4,128.7c-0.9,0-1.8,0.1-2.7,0.4c-0.8,0.3-1.6,0.8-2.3,1.4c-0.6,0.6-1.1,1.4-1.5,2.2
	c-0.3,0.8-0.4,1.7-0.3,2.6c0,0.9,0.1,1.8,0.4,2.6c0.3,0.8,0.8,1.6,1.4,2.3c0.6,0.6,1.4,1.1,2.3,1.4c0.9,0.3,1.8,0.4,2.7,0.3
	c1.8,0,3.5-0.7,4.8-2c1.3-1.2,2-2.9,2-4.7s-0.7-3.5-2-4.7C251.9,129.4,250.1,128.7,248.4,128.7z"/>
<path class="st0" d="M173.4,50c0.3,0.5,0.6,1,0.7,1.6c0.1,0.6,0.1,1.2,0,1.8c-0.1,0.6-0.4,1.1-0.7,1.6c-0.3,0.5-0.8,0.9-1.3,1.2
	c-3.8,2.1-8.2,3.2-12.6,3.1c-1.5,0.1-3.1,0-4.5-0.5s-2.8-1.2-4-2.2c-2.1-2.6-3-6-2.7-9.3V13.2c-0.1-0.8,0.1-1.5,0.5-2.1
	c0.4-0.6,1-1.1,1.7-1.4c1.6-1,3.2-1.9,4.9-2.7c0.6-0.3,1.4-0.5,2.1-0.5c0.7,0,1.4,0.2,2,0.6c0.6,0.4,1.1,0.9,1.5,1.5
	c0.4,0.6,0.6,1.3,0.6,2v4.9c0,0.5,0.2,0.9,0.6,1.2c0.3,0.3,0.8,0.5,1.2,0.6h5.4c1.1,0,2.1,0.4,2.9,1.2c0.8,0.7,1.2,1.8,1.2,2.8v2.2
	c0,1.1-0.4,2.1-1.2,2.8c-0.8,0.7-1.8,1.2-2.9,1.2h-5.4c-0.4,0-0.7,0.2-0.9,0.4c-0.2,0.2-0.4,0.6-0.4,0.9v16.9c0,2.2,0.9,3.1,2.2,3.1
	c1.4-0.2,2.7-0.5,4-0.9c1-0.1,1.9,0,2.8,0.4C172.1,48.6,172.9,49.2,173.4,50z"/>
<path class="st0" d="M216.5,57.6h-8.1c-0.2,0-0.4,0-0.5,0c-0.2-0.1-0.3-0.2-0.5-0.3c-0.1-0.1-0.2-0.3-0.3-0.5
	c-0.1-0.2-0.1-0.4,0-0.5c-0.1-0.2-0.2-0.4-0.4-0.6c-0.2-0.2-0.4-0.3-0.6-0.4c-0.2-0.1-0.4-0.1-0.7-0.1c-0.2,0-0.4,0.1-0.7,0.2
	c-2.7,2.1-6,3.2-9.4,3.1c-1.8,0.3-3.7,0.1-5.4-0.5c-1.8-0.6-3.3-1.6-4.6-2.8s-2.3-2.9-2.9-4.6c-0.6-1.7-0.8-3.6-0.5-5.4
	c-0.1-2,0.4-4,1.4-5.8c0.9-1.8,2.3-3.3,4-4.4c5.5-3,11.7-4.4,18-4c0.1-0.8,0-1.6-0.2-2.4c-0.2-0.8-0.6-1.5-1.1-2.1
	c-0.9-0.9-2.2-0.9-4.9-0.9c-3.5,0-6.9,0.9-9.9,2.7c-0.9,0.4-1.8,0.4-2.2-0.4c-1-1.3-1.8-2.8-2.2-4.4c-0.4-0.9,0-1.3,0.4-1.8
	c2.6-1.9,5.5-3.4,8.5-4.4c3.2-1,6.5-1.4,9.9-1.3c2.1,0,4.1,0.4,5.9,1.2c1.9,0.8,3.5,2.1,4.8,3.7c2.9,3.8,4.4,8.5,4,13.3v21.8
	C217.8,56.7,217.4,57.6,216.5,57.6z M204.4,39.4c-2.5-0.2-5,0.5-7.2,1.8c-0.8,0.3-1.5,0.9-2,1.6s-0.7,1.6-0.7,2.4c0,2.7,1.3,4,3.1,4
	c0.8,0,1.7-0.1,2.4-0.4c0.8-0.3,1.5-0.8,2-1.4c0.6-0.5,1-1.1,1.3-1.8c0.3-0.7,0.5-1.4,0.5-2.2L204.4,39.4z"/>
<path class="st0" d="M268.1,19.8l-15.7,12.9c-0.4,0.4-0.9,1.3-0.4,1.8c5.8,9.3,10.3,16,13,20.4c0.1,0.2,0.2,0.5,0.2,0.8
	c0,0.3-0.1,0.5-0.2,0.7s-0.3,0.4-0.6,0.5s-0.5,0.2-0.8,0.2h-11.2c-0.4,0-1.3-0.4-1.3-0.9c-2.2-4.4-4-8-5.4-11.1
	c-0.2-0.3-0.5-0.5-0.8-0.7c-0.3-0.1-0.7-0.1-1.1,0c-0.4,0.1-0.7,0.3-0.9,0.6c-0.2,0.3-0.3,0.6-0.3,1v9.8c0,0.3-0.2,0.7-0.4,0.9
	s-0.6,0.4-0.9,0.4h-10.3c-0.3,0-0.7-0.2-0.9-0.4c-0.2-0.2-0.4-0.6-0.4-0.9v-48c0-0.4,0.4-0.9,0.9-1.3l10.3-5.3
	C241,1,241.2,1,241.5,1c0.3,0,0.5,0.1,0.8,0.2c0.2,0.1,0.4,0.3,0.5,0.6s0.2,0.5,0.2,0.7V22c0,1.3,1.3,1.8,2.7,1.3
	c2.2-1.8,4.9-4,7.6-6.2c0.4-0.4,0.4-0.4,0.9-0.4h13c0.3,0.1,0.6,0.3,0.8,0.5c0.2,0.2,0.4,0.5,0.5,0.8c0.1,0.3,0.1,0.6,0,0.9
	C268.4,19.3,268.3,19.6,268.1,19.8z"/>
<path class="st1" d="M136.2,55.8c0-0.4,0-0.4-0.4-0.9c-1.6-3.9-3.5-7.6-5.8-11.1c-3.2-5.5-6.8-10.7-10.8-15.5
	c-3.6-4.9-7.6-11.6-3.1-13.3c0.4,0,0.4,0,0.9-0.4l6.3-0.9c1.6-0.3,3-1.2,3.9-2.6c0.9-1.3,1.3-3,1-4.6c-0.3-1.6-1.2-3-2.6-3.9
	c-1.3-0.9-3-1.3-4.6-1l-6.7,1.3c-4.5,0.4-9,1.3-13.9,1.8c-2.1,0.4-4.1,1.4-5.6,2.9c-1.5,1.5-2.5,3.4-2.9,5.6c-0.4,1.4-0.4,3,0,4.4
	c0.7,2.1,1.6,4.2,2.7,6.2c4.9,10.1,9.1,20.5,12.6,31.1c3.1,8.4,16.6,60.9-26.9,60.4c-17.1,0-26.5-11.6-27.4-20.4
	c0-0.2,0-0.5,0.1-0.7c0.1-0.2,0.2-0.4,0.4-0.6c0.2-0.2,0.4-0.3,0.6-0.4c0.2-0.1,0.5-0.1,0.7-0.1H68c1.6,0,3.1-0.6,4.3-1.7
	c1.2-1.1,1.9-2.5,2-4.1c0-0.8-0.1-1.6-0.4-2.4c-0.3-0.8-0.8-1.5-1.4-2c-0.6-0.6-1.3-1-2.1-1.3c-0.8-0.3-1.6-0.5-2.4-0.4H55.8
	c-1.5,0-3-0.6-4.1-1.7c-1.1-1.1-1.7-2.6-1.7-4.1c0-1.5,0.6-3,1.7-4.1c1.1-1.1,2.6-1.7,4.1-1.7h5.8c0.8,0,1.7-0.1,2.4-0.4
	c0.8-0.3,1.5-0.8,2.1-1.3c0.6-0.6,1-1.3,1.4-2c0.3-0.8,0.5-1.6,0.4-2.4c0-0.8-0.1-1.6-0.4-2.4c-0.3-0.8-0.8-1.5-1.4-2
	c-0.6-0.6-1.3-1-2.1-1.3c-0.8-0.3-1.6-0.5-2.4-0.4h-9.4c-6.7,0-21.1,0.4-22,0.4c-1.6,0.1-3.1,0.8-4.1,2c-1.1,1.2-1.7,2.7-1.7,4.2
	c0,1.5,0.6,3,1.7,4.1c1.1,1.1,2.6,1.7,4.1,1.7c1.4,0.2,2.6,0.9,3.6,2c0.9,1.1,1.4,2.4,1.4,3.8c0,1.5-0.7,3-1.7,4.1s-2.6,1.7-4.1,1.7
	H9.6c-4.9,0-7.6,2.2-7.6,6.2c0,3.6,2.7,5.8,7.6,5.8h19.3c4.5,0,5.4,3.6,6.3,7.6c0.4,2.7,4.5,41.3,47.6,41.3
	c32.3,0,57.4-27.5,57.4-64C139.8,70.5,138.4,63,136.2,55.8z"/>
<path class="st0" d="M76.2,87.4c0-0.8-0.1-1.6-0.4-2.4c-0.3-0.8-0.8-1.5-1.4-2c-0.6-0.6-1.3-1-2.1-1.3c-0.8-0.3-1.6-0.5-2.4-0.4
	H57.8c-1.5,0-3-0.6-4.1-1.7c-1.1-1.1-1.7-2.6-1.7-4.1c0-1.5,0.6-3,1.7-4.1c1.1-1.1,2.6-1.7,4.1-1.7h5.8c0.8,0,1.7-0.1,2.4-0.4
	c0.8-0.3,1.5-0.8,2.1-1.3c0.6-0.6,1-1.3,1.4-2c0.3-0.8,0.5-1.6,0.4-2.4c0-0.8-0.1-1.6-0.4-2.4c-0.3-0.8-0.8-1.5-1.4-2
	c-0.6-0.6-1.3-1-2.1-1.3c-0.8-0.3-1.6-0.5-2.4-0.4h-9.4c-6.7,0-23.3,0.4-24.2,0.4c-1.6,0.1-3.1,0.8-4.1,2c-1.1,1.2-1.7,2.7-1.7,4.2
	c0,1.5,0.6,3,1.7,4.1c1.1,1.1,2.6,1.7,4.1,1.7c1.4,0.2,2.6,0.9,3.6,2c0.9,1.1,1.4,2.4,1.4,3.8c0,1.5-0.7,3-1.7,4.1
	c-1.1,1.1-2.6,1.7-4.1,1.7H8.5c-4.9,0-7.6,2.2-7.6,6.2c0,3.6,2.7,5.8,7.6,5.8h61.4c1.6,0,3.1-0.6,4.3-1.7
	C75.4,90.4,76.1,88.9,76.2,87.4z"/>
</svg>
