<svg width="12" height="9" viewBox="0 0 12 9" fill="none" xmlns="http://www.w3.org/2000/svg">
<path d="M11.6484 4.83909L7.71094 8.7285C7.35938 9.07577 6.75 8.83268 6.75 8.33493V6.11241H3.5625C3.25078 6.11241 3 5.86469 3 5.55678V3.33427C3 3.02636 3.25078 2.77864 3.5625 2.77864H6.75V0.556121C6.75 0.0606855 7.35703 -0.184717 7.71094 0.162551L11.6484 4.05195C11.8664 4.26958 11.8664 4.62147 11.6484 4.83909ZM4.5 8.61274V7.68669C4.5 7.5339 4.37344 7.40888 4.21875 7.40888H2.25C1.83516 7.40888 1.5 7.07782 1.5 6.66804V2.22301C1.5 1.81323 1.83516 1.48217 2.25 1.48217H4.21875C4.37344 1.48217 4.5 1.35715 4.5 1.20436V0.278307C4.5 0.125509 4.37344 0.000492393 4.21875 0.000492393H2.25C1.00781 0.000492393 0 0.995994 0 2.22301V6.66804C0 7.89505 1.00781 8.89056 2.25 8.89056H4.21875C4.37344 8.89056 4.5 8.76554 4.5 8.61274Z" fill="#243885"/>
</svg>
